REM DIRINDEX 1\2,1\3,1\4,1\5,1\6
REM DIRNAME folder01,folder02,folder03,folder04,folder05,folder06
TITLE ""
FILE "CD2-03.mp3" MP3
  TRACK 01 AUDIO
    TITLE "6:cjc091_1523"
    INDEX 01 00:00:00
  TRACK 02 AUDIO
    TITLE "0:"
    INDEX 01 00:02:06
  TRACK 03 AUDIO
    TITLE "2:cjc091_1524"
    INDEX 01 00:03:35
  TRACK 04 AUDIO
    TITLE "0:"
    INDEX 01 00:04:40
  TRACK 05 AUDIO
    TITLE "3:cjc091_1525"
    INDEX 01 00:04:72
  TRACK 06 AUDIO
    TITLE "0:"
    INDEX 01 00:06:49
  TRACK 07 AUDIO
    TITLE "4:cjc091_1526"
    INDEX 01 00:06:71
  TRACK 08 AUDIO
    TITLE "0:"
    INDEX 01 00:11:31
  TRACK 09 AUDIO
    TITLE "2:cjc091_1527"
    INDEX 01 00:12:44
  TRACK 10 AUDIO
    TITLE "0:"
    INDEX 01 00:13:61
  TRACK 11 AUDIO
    TITLE "3:cjc091_1528"
    INDEX 01 00:13:65
  TRACK 12 AUDIO
    TITLE "0:"
    INDEX 01 00:15:05
  TRACK 13 AUDIO
    TITLE "4:cjc091_1529"
    INDEX 01 00:15:32
  TRACK 14 AUDIO
    TITLE "0:"
    INDEX 01 00:17:65
  TRACK 15 AUDIO
    TITLE "2:cjc091_1530"
    INDEX 01 00:19:07
  TRACK 16 AUDIO
    TITLE "0:"
    INDEX 01 00:20:37
  TRACK 17 AUDIO
    TITLE "3:cjc091_1531"
    INDEX 01 00:20:55
  TRACK 18 AUDIO
    TITLE "0:"
    INDEX 01 00:22:21
  TRACK 19 AUDIO
    TITLE "4:cjc091_1532"
    INDEX 01 00:22:44
  TRACK 20 AUDIO
    TITLE "0:"
    INDEX 01 00:24:55
  TRACK 21 AUDIO
    TITLE "2:cjc091_1533"
    INDEX 01 00:25:68
  TRACK 22 AUDIO
    TITLE "0:"
    INDEX 01 00:27:08
  TRACK 23 AUDIO
    TITLE "3:cjc091_1534"
    INDEX 01 00:27:10
  TRACK 24 AUDIO
    TITLE "0:"
    INDEX 01 00:28:13
  TRACK 25 AUDIO
    TITLE "4:cjc091_1535"
    INDEX 01 00:28:39
  TRACK 26 AUDIO
    TITLE "0:"
    INDEX 01 00:33:38
  TRACK 27 AUDIO
    TITLE "2:cjc091_1536"
    INDEX 01 00:34:43
  TRACK 28 AUDIO
    TITLE "0:"
    INDEX 01 00:35:53
  TRACK 29 AUDIO
    TITLE "3:cjc091_1537"
    INDEX 01 00:35:72
  TRACK 30 AUDIO
    TITLE "0:"
    INDEX 01 00:37:44
  TRACK 31 AUDIO
    TITLE "4:cjc091_1538"
    INDEX 01 00:37:63
  TRACK 32 AUDIO
    TITLE "0:"
    INDEX 01 00:43:11
  TRACK 33 AUDIO
    TITLE "2:cjc091_1539"
    INDEX 01 00:44:18
  TRACK 34 AUDIO
    TITLE "0:"
    INDEX 01 00:45:49
  TRACK 35 AUDIO
    TITLE "3:cjc091_1540"
    INDEX 01 00:45:63
  TRACK 36 AUDIO
    TITLE "0:"
    INDEX 01 00:47:36
  TRACK 37 AUDIO
    TITLE "4:cjc091_1541"
    INDEX 01 00:47:58
  TRACK 38 AUDIO
    TITLE "0:"
    INDEX 01 00:52:47
  TRACK 39 AUDIO
    TITLE "2:cjc091_1542"
    INDEX 01 00:53:68
  TRACK 40 AUDIO
    TITLE "0:"
    INDEX 01 00:56:00
  TRACK 41 AUDIO
    TITLE "3:cjc091_1543"
    INDEX 01 00:56:18
  TRACK 42 AUDIO
    TITLE "0:"
    INDEX 01 00:57:64
  TRACK 43 AUDIO
    TITLE "4:cjc091_1544"
    INDEX 01 00:58:09
  TRACK 44 AUDIO
    TITLE "0:"
    INDEX 01 01:04:00
  TRACK 45 AUDIO
    TITLE "2:cjc091_1545"
    INDEX 01 01:05:09
  TRACK 46 AUDIO
    TITLE "0:"
    INDEX 01 01:07:15
  TRACK 47 AUDIO
    TITLE "3:cjc091_1546"
    INDEX 01 01:07:29
  TRACK 48 AUDIO
    TITLE "0:"
    INDEX 01 01:09:56
  TRACK 49 AUDIO
    TITLE "4:cjc091_1547"
    INDEX 01 01:10:02
  TRACK 50 AUDIO
    TITLE "0:"
    INDEX 01 01:12:60
  TRACK 51 AUDIO
    TITLE "2:cjc091_1548"
    INDEX 01 01:13:71
  TRACK 52 AUDIO
    TITLE "0:"
    INDEX 01 01:15:35
  TRACK 53 AUDIO
    TITLE "3:cjc091_1549"
    INDEX 01 01:15:56
  TRACK 54 AUDIO
    TITLE "0:"
    INDEX 01 01:18:13
  TRACK 55 AUDIO
    TITLE "4:cjc091_1550"
    INDEX 01 01:18:39
  TRACK 56 AUDIO
    TITLE "0:"
    INDEX 01 01:24:18
  TRACK 57 AUDIO
    TITLE "2:cjc091_1551"
    INDEX 01 01:25:35
  TRACK 58 AUDIO
    TITLE "0:"
    INDEX 01 01:26:38
  TRACK 59 AUDIO
    TITLE "3:cjc091_1552"
    INDEX 01 01:26:56
  TRACK 60 AUDIO
    TITLE "0:"
    INDEX 01 01:28:37
  TRACK 61 AUDIO
    TITLE "4:cjc091_1553"
    INDEX 01 01:28:53
  TRACK 62 AUDIO
    TITLE "0:"
    INDEX 01 01:31:43
  TRACK 63 AUDIO
    TITLE "2:cjc091_1554"
    INDEX 01 01:32:51
  TRACK 64 AUDIO
    TITLE "0:"
    INDEX 01 01:34:30
  TRACK 65 AUDIO
    TITLE "3:cjc091_1555"
    INDEX 01 01:34:50
  TRACK 66 AUDIO
    TITLE "0:"
    INDEX 01 01:36:54
  TRACK 67 AUDIO
    TITLE "4:cjc091_1556"
    INDEX 01 01:37:05
  TRACK 68 AUDIO
    TITLE "0:"
    INDEX 01 01:40:44
  TRACK 69 AUDIO
    TITLE "2:cjc091_1557"
    INDEX 01 01:41:56
  TRACK 70 AUDIO
    TITLE "0:"
    INDEX 01 01:43:19
  TRACK 71 AUDIO
    TITLE "3:cjc091_1558"
    INDEX 01 01:43:41
  TRACK 72 AUDIO
    TITLE "0:"
    INDEX 01 01:45:30
  TRACK 73 AUDIO
    TITLE "4:cjc091_1559"
    INDEX 01 01:45:51
  TRACK 74 AUDIO
    TITLE "0:"
    INDEX 01 01:49:61
  TRACK 75 AUDIO
    TITLE "2:cjc091_1560"
    INDEX 01 01:51:01
  TRACK 76 AUDIO
    TITLE "0:"
    INDEX 01 01:52:22
  TRACK 77 AUDIO
    TITLE "3:cjc091_1561"
    INDEX 01 01:52:42
  TRACK 78 AUDIO
    TITLE "0:"
    INDEX 01 01:54:27
  TRACK 79 AUDIO
    TITLE "4:cjc091_1562"
    INDEX 01 01:54:46
  TRACK 80 AUDIO
    TITLE "0:"
    INDEX 01 01:58:46
  TRACK 81 AUDIO
    TITLE "2:cjc091_1563"
    INDEX 01 01:59:55
  TRACK 82 AUDIO
    TITLE "0:"
    INDEX 01 02:00:67
  TRACK 83 AUDIO
    TITLE "3:cjc091_1564"
    INDEX 01 02:01:13
  TRACK 84 AUDIO
    TITLE "0:"
    INDEX 01 02:02:67
  TRACK 85 AUDIO
    TITLE "4:cjc091_1565"
    INDEX 01 02:03:16
  TRACK 86 AUDIO
    TITLE "0:"
    INDEX 01 02:05:34
  TRACK 87 AUDIO
    TITLE "2:cjc091_1566"
    INDEX 01 02:06:50
  TRACK 88 AUDIO
    TITLE "0:"
    INDEX 01 02:08:17
  TRACK 89 AUDIO
    TITLE "3:cjc091_1567"
    INDEX 01 02:08:27
  TRACK 90 AUDIO
    TITLE "0:"
    INDEX 01 02:10:20
  TRACK 91 AUDIO
    TITLE "4:cjc091_1568"
    INDEX 01 02:10:42
  TRACK 92 AUDIO
    TITLE "0:"
    INDEX 01 02:13:46
